<?xml version="1.0" encoding="utf-8"?>
<!-- Generator: Adobe Illustrator 15.0.0, SVG Export Plug-In . SVG Version: 6.00 Build 0)  -->
<!DOCTYPE svg PUBLIC "-//W3C//DTD SVG 1.1//EN" "http://www.w3.org/Graphics/SVG/1.1/DTD/svg11.dtd">
<svg version="1.1" id="Layer_1" xmlns="http://www.w3.org/2000/svg" xmlns:xlink="http://www.w3.org/1999/xlink" x="0px" y="0px"
	 width="141.73px" height="141.73px" viewBox="0 0 141.73 141.73" enable-background="new 0 0 141.73 141.73" xml:space="preserve">
<path fill-rule="evenodd" clip-rule="evenodd" fill="#23B24B" d="M106.562,107.921H36.448c-1.104,0-2-0.896-2-2V35.807
	c0-1.104,0.896-2,2-2h70.114c1.104,0,2,0.896,2,2v70.114C108.562,107.025,107.667,107.921,106.562,107.921z M84.095,70.851
	c-7.238-1.47-12.687-7.869-12.687-15.542c0-4.831,2.168-9.15,5.574-12.059c-0.242-0.006-0.482-0.019-0.727-0.019
	c-15.65,0-28.337,12.688-28.337,28.338s12.687,28.338,28.337,28.338c2.774,0,5.452-0.405,7.986-1.148
	c0.66-0.202,1.295-0.459,1.912-0.751c-8.874,2.364-19.807-2.831-19.006-19.932c0.136,18.569,20.682,5.942,27.309,7.757
	c0.025-0.354,0.044-0.709,0.044-1.068C94.501,78.177,90.107,72.625,84.095,70.851z"/>
</svg>
