<?xml version="1.0" encoding="utf-8"?>
<!-- Generator: Adobe Illustrator 15.0.0, SVG Export Plug-In . SVG Version: 6.00 Build 0)  -->
<!DOCTYPE svg PUBLIC "-//W3C//DTD SVG 1.1//EN" "http://www.w3.org/Graphics/SVG/1.1/DTD/svg11.dtd">
<svg version="1.1" xmlns="http://www.w3.org/2000/svg" xmlns:xlink="http://www.w3.org/1999/xlink" x="0px" y="0px"
	 width="141.73px" height="141.73px" viewBox="0 0 141.73 141.73" enable-background="new 0 0 141.73 141.73" xml:space="preserve">
<g id="Layer_1">
	<path fill="#23B24B" d="M131.445,134.307H11.3c-1.893,0-3.427-1.534-3.427-3.427V10.737c0-1.893,1.535-3.427,3.427-3.427h120.146
		c1.891,0,3.427,1.535,3.427,3.427v120.144C134.872,132.773,133.338,134.307,131.445,134.307z"/>
</g>
<g id="Layer_2">
	<path fill="#FFFFFF" d="M71.206,44.155c0-8.278,3.715-15.68,9.551-20.665c-0.414-0.01-0.826-0.032-1.246-0.032
		c-26.816,0-48.557,21.741-48.557,48.559c0,26.816,21.741,48.559,48.557,48.559c4.754,0,9.342-0.695,13.686-1.969
		c1.131-0.344,2.219-0.785,3.275-1.285c-15.205,4.051-33.939-4.852-32.568-34.154c0.233,31.818,35.441,10.182,46.796,13.291
		c0.043-0.605,0.074-1.215,0.074-1.828c0.002-11.291-7.527-20.805-17.828-23.844C80.545,68.267,71.206,57.303,71.206,44.155"/>
</g>
</svg>
