<?xml version="1.0" encoding="utf-8"?>
<!-- Generator: Adobe Illustrator 15.0.0, SVG Export Plug-In . SVG Version: 6.00 Build 0)  -->
<!DOCTYPE svg PUBLIC "-//W3C//DTD SVG 1.1//EN" "http://www.w3.org/Graphics/SVG/1.1/DTD/svg11.dtd">
<svg version="1.1" id="Layer_1" xmlns="http://www.w3.org/2000/svg" xmlns:xlink="http://www.w3.org/1999/xlink" x="0px" y="0px"
	 width="595px" height="595px" viewBox="0 0 595 595" enable-background="new 0 0 595 595" xml:space="preserve">
<path fill="#939393" d="M363.647,339.986v-85.754c0-11.898-9.808-21.553-21.905-21.553h-87.233
	c-12.102,0-21.907,9.655-21.907,21.553v85.754c0,11.901,9.805,21.555,21.907,21.555h87.233
	C353.84,361.541,363.647,351.888,363.647,339.986z M420.434,379.229V214.985c0-22.803-18.322-41.282-40.904-41.282H216.72
	c-22.605,0-40.906,18.479-40.906,41.282v164.244c0,22.804,18.301,41.281,40.906,41.281h162.806
	C402.111,420.511,420.434,402.033,420.434,379.229z M383.307,354.53c0,15.945-12.757,28.854-28.483,28.854H241.425
	c-15.724,0-28.482-12.909-28.482-28.854V239.69c0-15.947,12.758-28.856,28.482-28.856h113.398c15.727,0,28.483,12.909,28.483,28.856
	V354.53z M234.787,121.286v39.313c0,2.403,1.963,4.368,4.367,4.368h8.736c2.401,0,4.368-1.965,4.368-4.368v-39.313
	c0-2.4-1.967-4.365-4.368-4.365h-8.736C236.75,116.92,234.787,118.886,234.787,121.286z M343.994,121.286v39.313
	c0,2.403,1.968,4.368,4.367,4.368h8.736c2.4,0,4.369-1.965,4.369-4.368v-39.313c0-2.4-1.969-4.365-4.369-4.365h-8.736
	C345.962,116.92,343.994,118.886,343.994,121.286z M289.392,121.286v39.313c0,2.403,1.962,4.368,4.365,4.368h8.736
	c2.4,0,4.368-1.965,4.368-4.368v-39.313c0-2.4-1.968-4.365-4.368-4.365h-8.736C291.354,116.92,289.392,118.886,289.392,121.286z
	 M234.787,435.803v39.312c0,2.403,1.963,4.369,4.367,4.369h8.736c2.401,0,4.368-1.966,4.368-4.369v-39.312
	c0-2.4-1.967-4.365-4.368-4.365h-8.736C236.75,431.432,234.787,433.402,234.787,435.803z M343.994,435.803v39.312
	c0,2.403,1.968,4.369,4.367,4.369h8.736c2.4,0,4.369-1.966,4.369-4.369v-39.312c0-2.4-1.969-4.365-4.369-4.365h-8.736
	C345.962,431.432,343.994,433.402,343.994,435.803z M289.392,435.803v39.312c0,2.403,1.962,4.369,4.365,4.369h8.736
	c2.4,0,4.368-1.966,4.368-4.369v-39.312c0-2.4-1.968-4.365-4.368-4.365h-8.736C291.354,431.432,289.392,433.402,289.392,435.803z
	 M121.21,361.541h39.313c2.401,0,4.368-1.966,4.368-4.365v-8.736c0-2.406-1.967-4.369-4.368-4.369H121.21
	c-2.401,0-4.367,1.963-4.367,4.369v8.736C116.843,359.575,118.809,361.541,121.21,361.541z M121.21,252.335h39.313
	c2.401,0,4.368-1.965,4.368-4.368v-8.738c0-2.403-1.967-4.368-4.368-4.368H121.21c-2.401,0-4.367,1.965-4.367,4.368v8.738
	C116.843,250.37,118.809,252.335,121.21,252.335z M121.21,306.938h39.313c2.401,0,4.368-1.968,4.368-4.368v-8.736
	c0-2.403-1.967-4.368-4.368-4.368H121.21c-2.401,0-4.367,1.965-4.367,4.368v8.736C116.843,304.971,118.809,306.938,121.21,306.938z
	 M435.729,361.541h39.311c2.402,0,4.367-1.966,4.367-4.365v-8.736c0-2.406-1.965-4.369-4.367-4.369h-39.311
	c-2.403,0-4.371,1.963-4.371,4.369v8.736C431.357,359.575,433.325,361.541,435.729,361.541z M435.729,252.335h39.311
	c2.402,0,4.367-1.965,4.367-4.368v-8.738c0-2.403-1.965-4.368-4.367-4.368h-39.311c-2.403,0-4.371,1.965-4.371,4.368v8.738
	C431.357,250.37,433.325,252.335,435.729,252.335z M435.729,306.938h39.311c2.402,0,4.367-1.968,4.367-4.368v-8.736
	c0-2.403-1.965-4.368-4.367-4.368h-39.311c-2.403,0-4.371,1.965-4.371,4.368v8.736C431.357,304.971,433.325,306.938,435.729,306.938
	z"/>
</svg>
